<mxfile><diagram id="XiTi3xoT0gfOCNGxnsfx" name="Page-1"><mxGraphModel dx="674" dy="1096" grid="1" gridSize="10" guides="1" tooltips="1" connect="1" arrows="1" fold="1" page="1" pageScale="1" pageWidth="850" pageHeight="1100" math="1" shadow="0"><root><mxCell id="0"/><mxCell id="1" parent="0"/><mxCell id="18" style="edgeStyle=orthogonalEdgeStyle;rounded=0;orthogonalLoop=1;jettySize=auto;html=1;exitX=0;exitY=0.5;exitDx=0;exitDy=0;entryX=1;entryY=0.5;entryDx=0;entryDy=0;strokeWidth=2;" edge="1" parent="1" source="2" target="15"><mxGeometry relative="1" as="geometry"/></mxCell><mxCell id="2" value="&lt;span&gt;&lt;font style=&quot;font-size: 16px&quot;&gt;$$U_V(\frac{\Delta t}{2})$$&lt;/font&gt;&lt;/span&gt;" style="rounded=0;whiteSpace=wrap;html=1;strokeWidth=2;" vertex="1" parent="1"><mxGeometry x="230" y="570" width="120" height="60" as="geometry"/></mxCell><mxCell id="6" style="edgeStyle=orthogonalEdgeStyle;rounded=0;orthogonalLoop=1;jettySize=auto;html=1;exitX=0.5;exitY=1;exitDx=0;exitDy=0;entryX=1;entryY=0.5;entryDx=0;entryDy=0;strokeWidth=2;" edge="1" parent="1" source="3" target="2"><mxGeometry relative="1" as="geometry"/></mxCell><mxCell id="3" value="&lt;span&gt;&lt;font style=&quot;font-size: 16px&quot;&gt;$$U_{H_0}(\Delta t)$$&lt;/font&gt;&lt;/span&gt;" style="rounded=0;whiteSpace=wrap;html=1;strokeWidth=2;" vertex="1" parent="1"><mxGeometry x="400" y="410" width="120" height="60" as="geometry"/></mxCell><mxCell id="5" style="edgeStyle=orthogonalEdgeStyle;rounded=0;orthogonalLoop=1;jettySize=auto;html=1;exitX=1;exitY=0.5;exitDx=0;exitDy=0;entryX=0.5;entryY=0;entryDx=0;entryDy=0;strokeWidth=2;" edge="1" parent="1" source="4" target="3"><mxGeometry relative="1" as="geometry"/></mxCell><mxCell id="4" value="&lt;font style=&quot;font-size: 16px&quot;&gt;$$U_V(\frac{\Delta t}{2})$$&lt;/font&gt;" style="rounded=0;whiteSpace=wrap;html=1;strokeWidth=2;" vertex="1" parent="1"><mxGeometry x="230" y="250" width="120" height="60" as="geometry"/></mxCell><mxCell id="9" style="edgeStyle=orthogonalEdgeStyle;rounded=0;orthogonalLoop=1;jettySize=auto;html=1;exitX=1;exitY=0.5;exitDx=0;exitDy=0;entryX=0;entryY=0.5;entryDx=0;entryDy=0;strokeWidth=2;" edge="1" parent="1" target="4"><mxGeometry relative="1" as="geometry"><mxPoint x="110" y="280" as="sourcePoint"/></mxGeometry></mxCell><mxCell id="11" value="&lt;font style=&quot;font-size: 16px&quot;&gt;&lt;b&gt;FFT&lt;/b&gt;&lt;/font&gt;" style="text;html=1;strokeColor=none;fillColor=none;align=center;verticalAlign=middle;whiteSpace=wrap;rounded=0;" vertex="1" parent="1"><mxGeometry x="385" y="247" width="40" height="20" as="geometry"/></mxCell><mxCell id="12" value="&lt;font style=&quot;font-size: 16px&quot;&gt;&lt;b&gt;iFFT&lt;/b&gt;&lt;/font&gt;" style="text;html=1;strokeColor=none;fillColor=none;align=center;verticalAlign=middle;whiteSpace=wrap;rounded=0;" vertex="1" parent="1"><mxGeometry x="385" y="560" width="40" height="20" as="geometry"/></mxCell><mxCell id="14" value="&lt;font style=&quot;font-size: 16px&quot;&gt;$$\psi(\mathbf{r}, t) $$&lt;/font&gt;" style="text;html=1;strokeColor=none;fillColor=none;align=center;verticalAlign=middle;whiteSpace=wrap;rounded=0;" vertex="1" parent="1"><mxGeometry x="50" y="270" width="60" height="20" as="geometry"/></mxCell><mxCell id="15" value="&lt;font style=&quot;font-size: 16px&quot;&gt;$$\psi(\mathbf{r}, t + \Delta t) $$&lt;/font&gt;" style="text;html=1;strokeColor=none;fillColor=none;align=center;verticalAlign=middle;whiteSpace=wrap;rounded=0;" vertex="1" parent="1"><mxGeometry y="590" width="110" height="20" as="geometry"/></mxCell></root></mxGraphModel></diagram></mxfile>